<svg xmlns="http://www.w3.org/2000/svg" version="1.1" xmlns:xlink="http://www.w3.org/1999/xlink" xmlns:svgjs="http://svgjs.com/svgjs" width="1440" height="560" preserveAspectRatio="none" viewBox="0 0 1440 560"><g mask="url(&quot;#SvgjsMask1008&quot;)" fill="none"><rect width="1440" height="560" x="0" y="0" fill="rgba(38, 38, 38, 1)"></rect><path d="M86.58 492.81L151.54 530.31L151.54 605.31L86.58 642.81L21.63 605.31L21.63 530.31zM281.44 -69.69L346.4 -32.19L346.4 42.81L281.44 80.31L216.49 42.81L216.49 -32.19zM346.4 42.81L411.35 80.31L411.35 155.31L346.4 192.81L281.44 155.31L281.44 80.31zM281.44 380.31L346.4 417.81L346.4 492.81L281.44 530.31L216.49 492.81L216.49 417.81zM346.4 492.81L411.35 530.31L411.35 605.31L346.4 642.81L281.44 605.31L281.44 530.31zM476.31 42.81L541.26 80.31L541.26 155.31L476.31 192.81L411.35 155.31L411.35 80.31zM411.35 155.31L476.31 192.81L476.31 267.81L411.35 305.31L346.4 267.81L346.4 192.81zM411.35 380.31L476.31 417.81L476.31 492.81L411.35 530.31L346.4 492.81L346.4 417.81zM541.26 -69.69L606.21 -32.19L606.21 42.81L541.26 80.31L476.31 42.81L476.31 -32.19zM541.26 155.31L606.21 192.81L606.21 267.81L541.26 305.31L476.31 267.81L476.31 192.81zM606.21 492.81L671.17 530.31L671.17 605.31L606.21 642.81L541.26 605.31L541.26 530.31zM866.03 42.81L930.98 80.31L930.98 155.31L866.03 192.81L801.07 155.31L801.07 80.31zM801.07 155.31L866.03 192.81L866.03 267.81L801.07 305.31L736.12 267.81L736.12 192.81zM866.03 267.81L930.98 305.31L930.98 380.31L866.03 417.81L801.07 380.31L801.07 305.31zM801.07 380.31L866.03 417.81L866.03 492.81L801.07 530.31L736.12 492.81L736.12 417.81zM930.98 -69.69L995.94 -32.19L995.94 42.81L930.98 80.31L866.03 42.81L866.03 -32.19zM995.94 267.81L1060.89 305.31L1060.89 380.31L995.94 417.81L930.98 380.31L930.98 305.31zM930.98 380.31L995.94 417.81L995.94 492.81L930.98 530.31L866.03 492.81L866.03 417.81zM995.94 492.81L1060.89 530.31L1060.89 605.31L995.94 642.81L930.98 605.31L930.98 530.31zM1125.84 42.81L1190.8 80.31L1190.8 155.31L1125.84 192.81L1060.89 155.31L1060.89 80.31zM1190.8 380.31L1255.75 417.81L1255.75 492.81L1190.8 530.31L1125.84 492.81L1125.84 417.81zM1320.71 380.31L1385.66 417.81L1385.66 492.81L1320.71 530.31L1255.75 492.81L1255.75 417.81zM1450.61 -69.69L1515.57 -32.19L1515.57 42.81L1450.61 80.31L1385.66 42.81L1385.66 -32.19zM1515.57 42.81L1580.52 80.31L1580.52 155.31L1515.57 192.81L1450.61 155.31L1450.61 80.31zM1515.57 492.81L1580.52 530.31L1580.52 605.31L1515.57 642.81L1450.61 605.31L1450.61 530.31z" stroke="rgba(0, 0, 0, 0.253)" stroke-width="2"></path><path d="M79.08 492.81 a7.5 7.5 0 1 0 15 0 a7.5 7.5 0 1 0 -15 0zM144.04 530.31 a7.5 7.5 0 1 0 15 0 a7.5 7.5 0 1 0 -15 0zM144.04 605.31 a7.5 7.5 0 1 0 15 0 a7.5 7.5 0 1 0 -15 0zM79.08 642.81 a7.5 7.5 0 1 0 15 0 a7.5 7.5 0 1 0 -15 0zM14.13 605.31 a7.5 7.5 0 1 0 15 0 a7.5 7.5 0 1 0 -15 0zM14.13 530.31 a7.5 7.5 0 1 0 15 0 a7.5 7.5 0 1 0 -15 0zM273.94 -69.69 a7.5 7.5 0 1 0 15 0 a7.5 7.5 0 1 0 -15 0zM338.9 -32.19 a7.5 7.5 0 1 0 15 0 a7.5 7.5 0 1 0 -15 0zM338.9 42.81 a7.5 7.5 0 1 0 15 0 a7.5 7.5 0 1 0 -15 0zM273.94 80.31 a7.5 7.5 0 1 0 15 0 a7.5 7.5 0 1 0 -15 0zM208.99 42.81 a7.5 7.5 0 1 0 15 0 a7.5 7.5 0 1 0 -15 0zM208.99 -32.19 a7.5 7.5 0 1 0 15 0 a7.5 7.5 0 1 0 -15 0zM403.85 80.31 a7.5 7.5 0 1 0 15 0 a7.5 7.5 0 1 0 -15 0zM403.85 155.31 a7.5 7.5 0 1 0 15 0 a7.5 7.5 0 1 0 -15 0zM338.9 192.81 a7.5 7.5 0 1 0 15 0 a7.5 7.5 0 1 0 -15 0zM273.94 155.31 a7.5 7.5 0 1 0 15 0 a7.5 7.5 0 1 0 -15 0zM273.94 380.31 a7.5 7.5 0 1 0 15 0 a7.5 7.5 0 1 0 -15 0zM338.9 417.81 a7.5 7.5 0 1 0 15 0 a7.5 7.5 0 1 0 -15 0zM338.9 492.81 a7.5 7.5 0 1 0 15 0 a7.5 7.5 0 1 0 -15 0zM273.94 530.31 a7.5 7.5 0 1 0 15 0 a7.5 7.5 0 1 0 -15 0zM208.99 492.81 a7.5 7.5 0 1 0 15 0 a7.5 7.5 0 1 0 -15 0zM208.99 417.81 a7.5 7.5 0 1 0 15 0 a7.5 7.5 0 1 0 -15 0zM403.85 530.31 a7.5 7.5 0 1 0 15 0 a7.5 7.5 0 1 0 -15 0zM403.85 605.31 a7.5 7.5 0 1 0 15 0 a7.5 7.5 0 1 0 -15 0zM338.9 642.81 a7.5 7.5 0 1 0 15 0 a7.5 7.5 0 1 0 -15 0zM273.94 605.31 a7.5 7.5 0 1 0 15 0 a7.5 7.5 0 1 0 -15 0zM468.81 42.81 a7.5 7.5 0 1 0 15 0 a7.5 7.5 0 1 0 -15 0zM533.76 80.31 a7.5 7.5 0 1 0 15 0 a7.5 7.5 0 1 0 -15 0zM533.76 155.31 a7.5 7.5 0 1 0 15 0 a7.5 7.5 0 1 0 -15 0zM468.81 192.81 a7.5 7.5 0 1 0 15 0 a7.5 7.5 0 1 0 -15 0zM468.81 267.81 a7.5 7.5 0 1 0 15 0 a7.5 7.5 0 1 0 -15 0zM403.85 305.31 a7.5 7.5 0 1 0 15 0 a7.5 7.5 0 1 0 -15 0zM338.9 267.81 a7.5 7.5 0 1 0 15 0 a7.5 7.5 0 1 0 -15 0zM403.85 380.31 a7.5 7.5 0 1 0 15 0 a7.5 7.5 0 1 0 -15 0zM468.81 417.81 a7.5 7.5 0 1 0 15 0 a7.5 7.5 0 1 0 -15 0zM468.81 492.81 a7.5 7.5 0 1 0 15 0 a7.5 7.5 0 1 0 -15 0zM533.76 -69.69 a7.5 7.5 0 1 0 15 0 a7.5 7.5 0 1 0 -15 0zM598.71 -32.19 a7.5 7.5 0 1 0 15 0 a7.5 7.5 0 1 0 -15 0zM598.71 42.81 a7.5 7.5 0 1 0 15 0 a7.5 7.5 0 1 0 -15 0zM468.81 -32.19 a7.5 7.5 0 1 0 15 0 a7.5 7.5 0 1 0 -15 0zM598.71 192.81 a7.5 7.5 0 1 0 15 0 a7.5 7.5 0 1 0 -15 0zM598.71 267.81 a7.5 7.5 0 1 0 15 0 a7.5 7.5 0 1 0 -15 0zM533.76 305.31 a7.5 7.5 0 1 0 15 0 a7.5 7.5 0 1 0 -15 0zM598.71 492.81 a7.5 7.5 0 1 0 15 0 a7.5 7.5 0 1 0 -15 0zM663.67 530.31 a7.5 7.5 0 1 0 15 0 a7.5 7.5 0 1 0 -15 0zM663.67 605.31 a7.5 7.5 0 1 0 15 0 a7.5 7.5 0 1 0 -15 0zM598.71 642.81 a7.5 7.5 0 1 0 15 0 a7.5 7.5 0 1 0 -15 0zM533.76 605.31 a7.5 7.5 0 1 0 15 0 a7.5 7.5 0 1 0 -15 0zM533.76 530.31 a7.5 7.5 0 1 0 15 0 a7.5 7.5 0 1 0 -15 0zM858.53 42.81 a7.5 7.5 0 1 0 15 0 a7.5 7.5 0 1 0 -15 0zM923.48 80.31 a7.5 7.5 0 1 0 15 0 a7.5 7.5 0 1 0 -15 0zM923.48 155.31 a7.5 7.5 0 1 0 15 0 a7.5 7.5 0 1 0 -15 0zM858.53 192.81 a7.5 7.5 0 1 0 15 0 a7.5 7.5 0 1 0 -15 0zM793.57 155.31 a7.5 7.5 0 1 0 15 0 a7.5 7.5 0 1 0 -15 0zM793.57 80.31 a7.5 7.5 0 1 0 15 0 a7.5 7.5 0 1 0 -15 0zM858.53 267.81 a7.5 7.5 0 1 0 15 0 a7.5 7.5 0 1 0 -15 0zM793.57 305.31 a7.5 7.5 0 1 0 15 0 a7.5 7.5 0 1 0 -15 0zM728.62 267.81 a7.5 7.5 0 1 0 15 0 a7.5 7.5 0 1 0 -15 0zM728.62 192.81 a7.5 7.5 0 1 0 15 0 a7.5 7.5 0 1 0 -15 0zM923.48 305.31 a7.5 7.5 0 1 0 15 0 a7.5 7.5 0 1 0 -15 0zM923.48 380.31 a7.5 7.5 0 1 0 15 0 a7.5 7.5 0 1 0 -15 0zM858.53 417.81 a7.5 7.5 0 1 0 15 0 a7.5 7.5 0 1 0 -15 0zM793.57 380.31 a7.5 7.5 0 1 0 15 0 a7.5 7.5 0 1 0 -15 0zM858.53 492.81 a7.5 7.5 0 1 0 15 0 a7.5 7.5 0 1 0 -15 0zM793.57 530.31 a7.5 7.5 0 1 0 15 0 a7.5 7.5 0 1 0 -15 0zM728.62 492.81 a7.5 7.5 0 1 0 15 0 a7.5 7.5 0 1 0 -15 0zM728.62 417.81 a7.5 7.5 0 1 0 15 0 a7.5 7.5 0 1 0 -15 0zM923.48 -69.69 a7.5 7.5 0 1 0 15 0 a7.5 7.5 0 1 0 -15 0zM988.44 -32.19 a7.5 7.5 0 1 0 15 0 a7.5 7.5 0 1 0 -15 0zM988.44 42.81 a7.5 7.5 0 1 0 15 0 a7.5 7.5 0 1 0 -15 0zM858.53 -32.19 a7.5 7.5 0 1 0 15 0 a7.5 7.5 0 1 0 -15 0zM988.44 267.81 a7.5 7.5 0 1 0 15 0 a7.5 7.5 0 1 0 -15 0zM1053.39 305.31 a7.5 7.5 0 1 0 15 0 a7.5 7.5 0 1 0 -15 0zM1053.39 380.31 a7.5 7.5 0 1 0 15 0 a7.5 7.5 0 1 0 -15 0zM988.44 417.81 a7.5 7.5 0 1 0 15 0 a7.5 7.5 0 1 0 -15 0zM988.44 492.81 a7.5 7.5 0 1 0 15 0 a7.5 7.5 0 1 0 -15 0zM923.48 530.31 a7.5 7.5 0 1 0 15 0 a7.5 7.5 0 1 0 -15 0zM1053.39 530.31 a7.5 7.5 0 1 0 15 0 a7.5 7.5 0 1 0 -15 0zM1053.39 605.31 a7.5 7.5 0 1 0 15 0 a7.5 7.5 0 1 0 -15 0zM988.44 642.81 a7.5 7.5 0 1 0 15 0 a7.5 7.5 0 1 0 -15 0zM923.48 605.31 a7.5 7.5 0 1 0 15 0 a7.5 7.5 0 1 0 -15 0zM1118.34 42.81 a7.5 7.5 0 1 0 15 0 a7.5 7.5 0 1 0 -15 0zM1183.3 80.31 a7.5 7.5 0 1 0 15 0 a7.5 7.5 0 1 0 -15 0zM1183.3 155.31 a7.5 7.5 0 1 0 15 0 a7.5 7.5 0 1 0 -15 0zM1118.34 192.81 a7.5 7.5 0 1 0 15 0 a7.5 7.5 0 1 0 -15 0zM1053.39 155.31 a7.5 7.5 0 1 0 15 0 a7.5 7.5 0 1 0 -15 0zM1053.39 80.31 a7.5 7.5 0 1 0 15 0 a7.5 7.5 0 1 0 -15 0zM1183.3 380.31 a7.5 7.5 0 1 0 15 0 a7.5 7.5 0 1 0 -15 0zM1248.25 417.81 a7.5 7.5 0 1 0 15 0 a7.5 7.5 0 1 0 -15 0zM1248.25 492.81 a7.5 7.5 0 1 0 15 0 a7.5 7.5 0 1 0 -15 0zM1183.3 530.31 a7.5 7.5 0 1 0 15 0 a7.5 7.5 0 1 0 -15 0zM1118.34 492.81 a7.5 7.5 0 1 0 15 0 a7.5 7.5 0 1 0 -15 0zM1118.34 417.81 a7.5 7.5 0 1 0 15 0 a7.5 7.5 0 1 0 -15 0zM1313.21 380.31 a7.5 7.5 0 1 0 15 0 a7.5 7.5 0 1 0 -15 0zM1378.16 417.81 a7.5 7.5 0 1 0 15 0 a7.5 7.5 0 1 0 -15 0zM1378.16 492.81 a7.5 7.5 0 1 0 15 0 a7.5 7.5 0 1 0 -15 0zM1313.21 530.31 a7.5 7.5 0 1 0 15 0 a7.5 7.5 0 1 0 -15 0zM1443.11 -69.69 a7.5 7.5 0 1 0 15 0 a7.5 7.5 0 1 0 -15 0zM1508.07 -32.19 a7.5 7.5 0 1 0 15 0 a7.5 7.5 0 1 0 -15 0zM1508.07 42.81 a7.5 7.5 0 1 0 15 0 a7.5 7.5 0 1 0 -15 0zM1443.11 80.31 a7.5 7.5 0 1 0 15 0 a7.5 7.5 0 1 0 -15 0zM1378.16 42.81 a7.5 7.5 0 1 0 15 0 a7.5 7.5 0 1 0 -15 0zM1378.16 -32.19 a7.5 7.5 0 1 0 15 0 a7.5 7.5 0 1 0 -15 0zM1573.02 80.31 a7.5 7.5 0 1 0 15 0 a7.5 7.5 0 1 0 -15 0zM1573.02 155.31 a7.5 7.5 0 1 0 15 0 a7.5 7.5 0 1 0 -15 0zM1508.07 192.81 a7.5 7.5 0 1 0 15 0 a7.5 7.5 0 1 0 -15 0zM1443.11 155.31 a7.5 7.5 0 1 0 15 0 a7.5 7.5 0 1 0 -15 0zM1508.07 492.81 a7.5 7.5 0 1 0 15 0 a7.5 7.5 0 1 0 -15 0zM1573.02 530.31 a7.5 7.5 0 1 0 15 0 a7.5 7.5 0 1 0 -15 0zM1573.02 605.31 a7.5 7.5 0 1 0 15 0 a7.5 7.5 0 1 0 -15 0zM1508.07 642.81 a7.5 7.5 0 1 0 15 0 a7.5 7.5 0 1 0 -15 0zM1443.11 605.31 a7.5 7.5 0 1 0 15 0 a7.5 7.5 0 1 0 -15 0zM1443.11 530.31 a7.5 7.5 0 1 0 15 0 a7.5 7.5 0 1 0 -15 0z" fill="rgba(0, 0, 0, 0.253)"></path><path d="M33.45 141.68L76.75 166.68L76.75 216.68L33.45 241.68L-9.85 216.68L-9.85 166.68zM33.45 291.68L76.75 316.68L76.75 366.68L33.45 391.68L-9.85 366.68L-9.85 316.68zM33.45 441.68L76.75 466.68L76.75 516.68L33.45 541.68L-9.85 516.68L-9.85 466.68zM76.75 516.68L120.06 541.68L120.06 591.68L76.75 616.68L33.45 591.68L33.45 541.68zM120.06 -8.32L163.36 16.68L163.36 66.68L120.06 91.68L76.75 66.68L76.75 16.68zM163.36 66.68L206.66 91.68L206.66 141.68L163.36 166.68L120.06 141.68L120.06 91.68zM163.36 216.68L206.66 241.68L206.66 291.68L163.36 316.68L120.06 291.68L120.06 241.68zM163.36 516.68L206.66 541.68L206.66 591.68L163.36 616.68L120.06 591.68L120.06 541.68zM206.66 -8.32L249.96 16.68L249.96 66.68L206.66 91.68L163.36 66.68L163.36 16.68zM206.66 291.68L249.96 316.68L249.96 366.68L206.66 391.68L163.36 366.68L163.36 316.68zM249.96 366.68L293.26 391.68L293.26 441.68L249.96 466.68L206.66 441.68L206.66 391.68zM206.66 441.68L249.96 466.68L249.96 516.68L206.66 541.68L163.36 516.68L163.36 466.68zM249.96 516.68L293.26 541.68L293.26 591.68L249.96 616.68L206.66 591.68L206.66 541.68zM293.26 141.68L336.57 166.68L336.57 216.68L293.26 241.68L249.96 216.68L249.96 166.68zM293.26 291.68L336.57 316.68L336.57 366.68L293.26 391.68L249.96 366.68L249.96 316.68zM379.87 -8.32L423.17 16.68L423.17 66.68L379.87 91.68L336.57 66.68L336.57 16.68zM379.87 141.68L423.17 166.68L423.17 216.68L379.87 241.68L336.57 216.68L336.57 166.68zM423.17 216.68L466.48 241.68L466.48 291.68L423.17 316.68L379.87 291.68L379.87 241.68zM379.87 291.68L423.17 316.68L423.17 366.68L379.87 391.68L336.57 366.68L336.57 316.68zM466.48 -8.32L509.78 16.68L509.78 66.68L466.48 91.68L423.17 66.68L423.17 16.68zM509.78 216.68L553.08 241.68L553.08 291.68L509.78 316.68L466.48 291.68L466.48 241.68zM466.48 291.68L509.78 316.68L509.78 366.68L466.48 391.68L423.17 366.68L423.17 316.68zM509.78 366.68L553.08 391.68L553.08 441.68L509.78 466.68L466.48 441.68L466.48 391.68zM466.48 441.68L509.78 466.68L509.78 516.68L466.48 541.68L423.17 516.68L423.17 466.68zM553.08 291.68L596.38 316.68L596.38 366.68L553.08 391.68L509.78 366.68L509.78 316.68zM596.38 366.68L639.69 391.68L639.69 441.68L596.38 466.68L553.08 441.68L553.08 391.68zM682.99 66.68L726.29 91.68L726.29 141.68L682.99 166.68L639.69 141.68L639.69 91.68zM682.99 216.68L726.29 241.68L726.29 291.68L682.99 316.68L639.69 291.68L639.69 241.68zM682.99 366.68L726.29 391.68L726.29 441.68L682.99 466.68L639.69 441.68L639.69 391.68zM769.59 66.68L812.9 91.68L812.9 141.68L769.59 166.68L726.29 141.68L726.29 91.68zM726.29 141.68L769.59 166.68L769.59 216.68L726.29 241.68L682.99 216.68L682.99 166.68zM726.29 291.68L769.59 316.68L769.59 366.68L726.29 391.68L682.99 366.68L682.99 316.68zM812.9 291.68L856.2 316.68L856.2 366.68L812.9 391.68L769.59 366.68L769.59 316.68zM856.2 366.68L899.5 391.68L899.5 441.68L856.2 466.68L812.9 441.68L812.9 391.68zM812.9 441.68L856.2 466.68L856.2 516.68L812.9 541.68L769.59 516.68L769.59 466.68zM899.5 -8.32L942.8 16.68L942.8 66.68L899.5 91.68L856.2 66.68L856.2 16.68zM899.5 141.68L942.8 166.68L942.8 216.68L899.5 241.68L856.2 216.68L856.2 166.68zM942.8 216.68L986.11 241.68L986.11 291.68L942.8 316.68L899.5 291.68L899.5 241.68zM942.8 366.68L986.11 391.68L986.11 441.68L942.8 466.68L899.5 441.68L899.5 391.68zM899.5 441.68L942.8 466.68L942.8 516.68L899.5 541.68L856.2 516.68L856.2 466.68zM986.11 141.68L1029.41 166.68L1029.41 216.68L986.11 241.68L942.8 216.68L942.8 166.68zM1072.71 -8.32L1116.01 16.68L1116.01 66.68L1072.71 91.68L1029.41 66.68L1029.41 16.68zM1072.71 141.68L1116.01 166.68L1116.01 216.68L1072.71 241.68L1029.41 216.68L1029.41 166.68zM1072.71 291.68L1116.01 316.68L1116.01 366.68L1072.71 391.68L1029.41 366.68L1029.41 316.68zM1116.01 366.68L1159.32 391.68L1159.32 441.68L1116.01 466.68L1072.71 441.68L1072.71 391.68zM1072.71 441.68L1116.01 466.68L1116.01 516.68L1072.71 541.68L1029.41 516.68L1029.41 466.68zM1116.01 516.68L1159.32 541.68L1159.32 591.68L1116.01 616.68L1072.71 591.68L1072.71 541.68zM1202.62 66.68L1245.92 91.68L1245.92 141.68L1202.62 166.68L1159.32 141.68L1159.32 91.68zM1202.62 516.68L1245.92 541.68L1245.92 591.68L1202.62 616.68L1159.32 591.68L1159.32 541.68zM1245.92 -8.32L1289.22 16.68L1289.22 66.68L1245.92 91.68L1202.62 66.68L1202.62 16.68zM1289.22 66.68L1332.53 91.68L1332.53 141.68L1289.22 166.68L1245.92 141.68L1245.92 91.68zM1245.92 141.68L1289.22 166.68L1289.22 216.68L1245.92 241.68L1202.62 216.68L1202.62 166.68zM1375.83 66.68L1419.13 91.68L1419.13 141.68L1375.83 166.68L1332.53 141.68L1332.53 91.68zM1332.53 141.68L1375.83 166.68L1375.83 216.68L1332.53 241.68L1289.22 216.68L1289.22 166.68zM1375.83 216.68L1419.13 241.68L1419.13 291.68L1375.83 316.68L1332.53 291.68L1332.53 241.68zM1375.83 366.68L1419.13 391.68L1419.13 441.68L1375.83 466.68L1332.53 441.68L1332.53 391.68zM1332.53 441.68L1375.83 466.68L1375.83 516.68L1332.53 541.68L1289.22 516.68L1289.22 466.68zM1462.43 66.68L1505.74 91.68L1505.74 141.68L1462.43 166.68L1419.13 141.68L1419.13 91.68zM1462.43 216.68L1505.74 241.68L1505.74 291.68L1462.43 316.68L1419.13 291.68L1419.13 241.68zM1462.43 366.68L1505.74 391.68L1505.74 441.68L1462.43 466.68L1419.13 441.68L1419.13 391.68z" stroke="rgba(33, 235, 255, 1)" stroke-width="2"></path></g><defs><mask id="SvgjsMask1008"><rect width="1440" height="560" fill="#ffffff"></rect></mask></defs></svg>